<?xml version="1.0" standalone="no"?>
<!DOCTYPE svg PUBLIC "-//W3C//DTD SVG 20010904//EN"
 "http://www.w3.org/TR/2001/REC-SVG-20010904/DTD/svg10.dtd">
<svg version="1.0" xmlns="http://www.w3.org/2000/svg"
 width="304.000000pt" height="304.000000pt" viewBox="0 0 304.000000 304.000000"
 preserveAspectRatio="xMidYMid meet">
<metadata>
Created by potrace 1.14, written by Peter Selinger 2001-2017
</metadata>
<g transform="translate(0.000000,304.000000) scale(0.100000,-0.100000)"
fill="#000000" stroke="none">
<path d="M1390 2774 c-28 -13 -50 -27 -50 -33 0 -5 -9 -13 -20 -16 -11 -3 -20
-13 -20 -21 0 -14 -7 -24 -38 -59 -7 -8 -11 -15 -8 -15 3 0 -17 -36 -44 -80
-28 -44 -50 -82 -50 -86 0 -3 -8 -18 -18 -32 -10 -15 -29 -45 -42 -66 -25 -41
-20 -41 38 2 17 13 32 21 32 18 0 -4 11 1 25 10 18 12 25 13 25 4 0 -8 4 -9
13 -3 14 10 45 10 102 -2 22 -5 44 -8 48 -7 5 1 6 -2 2 -8 -6 -9 7 -14 28 -11
4 0 6 -3 5 -7 -2 -4 10 -20 26 -35 16 -15 26 -27 22 -27 -4 0 4 -15 18 -33 15
-19 26 -39 26 -44 0 -6 7 -16 15 -23 8 -7 12 -16 9 -21 -3 -5 -1 -9 4 -9 6 0
13 -11 16 -25 4 -14 11 -23 16 -20 6 3 7 -1 4 -9 -3 -9 -1 -16 5 -16 6 0 11
-7 11 -15 0 -8 5 -15 11 -15 5 0 7 -4 4 -10 -3 -5 -3 -10 2 -10 4 0 19 -21 31
-47 34 -69 56 -108 65 -111 4 -2 7 -9 7 -16 0 -7 9 -22 20 -34 12 -12 18 -22
14 -22 -3 0 -1 -7 6 -15 7 -8 10 -15 6 -15 -3 0 3 -9 14 -20 11 -11 20 -26 20
-34 0 -8 3 -16 8 -18 9 -4 34 -48 61 -105 11 -24 26 -43 32 -43 7 0 10 -3 6
-6 -3 -4 7 -26 23 -50 17 -23 30 -48 30 -54 0 -6 9 -20 20 -32 10 -12 17 -24
15 -28 -3 -4 2 -13 10 -20 8 -7 15 -19 15 -26 0 -8 4 -14 9 -14 5 0 11 -8 15
-17 12 -34 73 -135 87 -144 12 -7 12 -9 0 -9 -12 0 -12 -2 1 -12 14 -11 37
-50 83 -135 7 -13 16 -19 20 -15 5 4 5 1 1 -6 -5 -8 -1 -21 10 -33 10 -11 19
-26 20 -34 1 -8 9 -22 18 -31 9 -8 14 -19 11 -24 -3 -4 2 -10 10 -14 8 -3 15
-12 15 -21 0 -8 5 -15 10 -15 6 0 9 -3 9 -8 -3 -19 2 -45 7 -39 6 6 26 -27 68
-110 6 -13 14 -23 19 -23 4 0 7 -7 7 -15 0 -9 6 -18 13 -21 7 -2 14 -14 14
-27 1 -12 7 -23 13 -25 5 -2 8 -8 4 -13 -3 -5 -1 -9 4 -9 5 0 15 -15 23 -33 7
-17 15 -34 18 -37 3 -3 24 -39 45 -80 21 -41 46 -82 55 -91 31 -33 153 -7 203
43 10 10 23 18 28 18 6 0 9 3 8 8 -2 4 8 28 21 54 27 57 31 99 14 151 -7 20
-10 37 -8 37 3 0 -9 23 -25 50 -17 28 -30 55 -30 60 0 6 -3 10 -8 10 -4 0 -16
20 -27 45 -11 25 -23 45 -27 45 -4 0 -15 17 -25 37 -9 21 -33 63 -52 93 -19
30 -34 60 -34 67 0 7 -6 14 -14 17 -7 3 -13 12 -13 21 0 8 -4 15 -9 15 -5 0
-11 8 -14 17 -4 10 -18 38 -32 63 -34 58 -103 178 -145 255 -19 33 -44 78 -57
100 -12 22 -28 51 -35 65 -7 14 -15 27 -18 30 -6 6 -48 83 -64 117 -6 13 -14
23 -18 23 -5 0 -8 5 -8 10 0 6 -12 29 -27 53 -15 23 -26 48 -25 55 2 6 -2 12
-7 12 -6 0 -17 16 -25 35 -8 19 -20 35 -27 35 -7 0 -10 3 -6 6 3 3 -8 27 -24
54 -16 26 -29 52 -29 59 0 6 -3 11 -7 11 -5 0 -21 25 -38 55 -16 30 -33 55
-38 55 -4 0 -6 4 -2 9 3 5 -2 16 -10 24 -8 9 -15 23 -15 31 0 9 -3 16 -8 16
-4 0 -16 17 -27 38 -11 20 -34 60 -52 89 -18 29 -33 54 -33 57 0 2 -21 40 -46
83 -26 43 -58 98 -72 123 -33 58 -88 113 -131 130 -56 22 -135 20 -191 -6z"/>
<path d="M1010 2010 c-60 -12 -110 -38 -150 -81 -22 -22 -40 -45 -40 -50 0 -6
-16 -35 -35 -65 -19 -30 -35 -58 -35 -63 0 -5 -3 -11 -7 -13 -5 -1 -18 -23
-31 -48 -27 -52 -64 -118 -100 -175 -14 -22 -24 -40 -22 -40 3 0 -10 -21 -28
-47 -18 -27 -30 -48 -26 -48 4 0 0 -8 -9 -17 -8 -10 -17 -25 -19 -33 -2 -8 -7
-18 -11 -21 -5 -3 -37 -57 -72 -120 -34 -63 -70 -122 -79 -131 -9 -10 -16 -20
-17 -23 -5 -28 -13 -45 -21 -45 -5 0 -7 -4 -4 -9 3 -5 -1 -12 -10 -15 -8 -3
-13 -10 -10 -15 4 -5 0 -15 -7 -23 -7 -7 -21 -30 -30 -50 -10 -20 -22 -40 -27
-43 -6 -4 -8 -11 -5 -16 4 -5 1 -9 -4 -9 -6 0 -11 -7 -11 -15 0 -7 -6 -18 -12
-22 -7 -4 -31 -42 -52 -83 -22 -41 -42 -77 -45 -80 -4 -3 -8 -18 -10 -35 -11
-109 7 -164 75 -231 56 -54 103 -62 370 -61 116 0 215 -3 221 -6 5 -3 15 -2
23 3 8 5 22 5 32 -1 10 -5 18 -6 18 -1 0 7 63 8 80 2 3 -1 9 -2 14 -1 4 1 64
3 133 5 73 2 130 9 136 15 6 6 18 11 26 11 21 0 91 50 91 65 0 7 7 16 16 19 9
4 14 9 11 12 -3 3 2 14 11 24 32 34 53 65 58 88 4 12 10 22 15 22 11 0 39 65
42 100 7 62 27 64 58 6 13 -25 27 -42 33 -39 5 3 7 2 3 -3 -3 -5 8 -32 24 -59
16 -28 32 -58 35 -67 4 -10 10 -18 15 -18 5 0 9 -6 9 -12 0 -22 70 -96 116
-123 59 -35 140 -47 299 -44 44 1 88 1 97 1 12 -1 15 6 12 26 -3 15 -9 29 -13
32 -8 6 -60 91 -79 130 -7 14 -39 69 -72 123 -33 55 -60 102 -60 107 0 4 -7
13 -15 20 -8 7 -12 16 -9 21 3 5 1 9 -4 9 -5 0 -12 8 -15 18 -4 9 -18 37 -33
62 -28 47 -50 85 -85 148 -12 20 -26 43 -31 50 -6 6 -7 12 -4 12 4 0 1 7 -6
15 -30 34 -36 43 -31 49 3 3 -2 8 -11 12 -9 3 -14 9 -11 14 12 19 -105 96
-131 86 -8 -3 -14 -1 -14 4 0 10 -76 7 -86 -3 -3 -3 -12 -3 -19 -1 -7 3 -16 0
-20 -5 -3 -6 -10 -9 -14 -7 -14 9 -88 -71 -129 -141 -24 -40 -42 -76 -41 -79
0 -4 -3 -10 -8 -13 -10 -7 -93 -150 -96 -165 -1 -5 -10 -18 -20 -28 -10 -10
-15 -23 -12 -28 4 -6 2 -10 -3 -10 -5 0 -15 -14 -22 -30 -7 -17 -22 -32 -34
-35 -28 -7 -435 0 -442 8 -3 3 3 14 14 25 11 11 18 23 15 26 -3 2 4 18 16 34
11 16 25 40 31 53 11 26 32 61 41 69 3 3 16 25 30 50 13 25 26 47 29 50 5 5
14 20 52 89 11 20 24 40 29 46 5 5 9 17 9 27 0 10 4 18 9 18 9 0 121 194 121
210 0 6 4 10 10 10 5 0 12 11 16 25 3 14 10 25 14 25 4 0 10 8 12 18 3 9 6 22
8 27 1 6 11 16 22 23 10 7 16 17 13 21 -5 9 82 74 105 78 8 1 24 4 35 5 11 2
25 7 31 11 6 3 14 3 18 0 4 -4 20 -8 36 -9 16 -1 41 -9 57 -18 15 -8 36 -18
46 -22 9 -3 17 -10 17 -15 0 -5 5 -9 11 -9 8 0 8 5 -1 15 -7 8 -9 15 -4 15 5
0 4 4 -2 8 -13 8 -38 48 -81 130 -15 28 -31 52 -36 52 -4 0 -5 5 -2 10 3 6 3
10 -2 10 -4 0 -14 15 -22 33 -8 17 -21 40 -29 50 -8 9 -12 17 -9 17 4 0 -13
20 -36 45 -24 25 -48 45 -53 45 -5 0 -22 7 -38 15 -16 9 -35 14 -42 11 -6 -2
-15 -1 -20 3 -5 4 -25 5 -44 1z"/>
</g>
</svg>
